<svg xmlns="http://www.w3.org/2000/svg" viewBox="10.5 13.0 218.8 155.0" role="img" aria-label="多多 · 暂时听不见"><title>多多 · 暂时听不见</title><g transform="rotate(6 117 90.5)"><path d="M 220.8 87.9 C 220.1 86.4 216.9 85.2 216.5 84.5 C 216.2 83.9 218.6 84.4 218.8 83.8 C 219.0 83.2 219.9 82.6 217.7 80.9 C 215.4 79.2 207.4 75.0 205.5 73.7 C 203.6 72.4 205.4 72.9 206.2 73.1 C 207.0 73.2 209.4 74.6 210.2 74.8 C 211.0 75.1 210.9 75.0 211.1 74.6 C 211.4 74.2 211.9 73.3 211.8 72.6 C 211.7 71.9 211.3 71.3 210.7 70.6 C 210.0 69.9 209.2 69.0 208.0 68.3 C 206.7 67.6 205.0 67.3 203.2 66.2 C 201.3 65.2 197.8 63.0 196.8 62.1 C 195.9 61.2 196.7 61.1 197.3 61.1 C 197.9 61.1 199.9 62.0 200.7 62.1 C 201.4 62.2 201.6 62.2 201.9 61.8 C 202.3 61.5 202.9 61.0 202.8 60.0 C 202.7 59.1 202.1 57.3 201.5 56.4 C 200.9 55.4 200.4 55.0 199.2 54.3 C 198.0 53.5 196.5 52.5 194.2 52.0 C 192.0 51.5 187.5 51.6 186.0 51.2 C 184.5 50.9 185.2 50.4 185.5 50.0 C 185.8 49.6 187.3 49.6 187.8 49.0 C 188.2 48.4 188.5 47.5 188.2 46.5 C 188.0 45.5 187.3 44.1 186.2 43.2 C 185.2 42.4 182.5 42.0 182.0 41.5 C 181.5 41.0 182.9 40.5 183.0 40.0 C 183.1 39.5 183.2 39.1 182.8 38.5 C 182.3 37.9 181.1 36.8 180.2 36.2 C 179.4 35.7 178.9 35.5 177.5 35.2 C 176.1 35.0 173.0 35.2 172.0 35.0 C 171.0 34.8 171.4 34.8 171.5 34.2 C 171.6 33.7 172.5 32.4 172.5 31.8 C 172.5 31.1 172.2 31.0 171.8 30.5 C 171.3 30.0 170.8 29.2 169.8 29.0 C 168.7 28.8 165.9 29.5 165.2 29.0 C 164.6 28.5 166.0 27.2 165.8 26.2 C 165.5 25.2 164.8 23.9 163.5 23.0 C 162.2 22.1 160.1 21.3 158.0 21.0 C 155.9 20.7 152.8 21.0 151.0 21.2 C 149.2 21.5 147.8 23.2 147.0 22.8 C 146.2 22.3 146.9 19.7 146.5 18.8 C 146.1 17.8 145.5 17.5 144.8 17.0 C 144.0 16.5 143.3 16.1 142.0 16.0 C 140.7 15.9 138.4 15.8 136.8 16.2 C 135.1 16.7 133.0 18.6 132.2 18.8 C 131.5 18.9 132.5 17.7 132.2 17.2 C 132.0 16.8 131.8 16.4 131.0 16.2 C 130.2 16.1 128.8 16.0 127.8 16.2 C 126.7 16.5 125.4 17.7 124.8 18.0 C 124.1 18.3 124.3 18.3 123.8 18.0 C 123.2 17.7 122.2 16.5 121.2 16.2 C 120.3 16.0 119.2 16.1 118.2 16.2 C 117.3 16.4 116.5 16.6 115.5 17.0 C 114.5 17.4 113.6 17.7 112.5 18.8 C 111.4 19.8 109.8 22.8 108.8 23.2 C 107.7 23.7 107.1 21.5 106.2 21.2 C 105.4 21.0 104.3 21.1 103.5 21.5 C 102.7 21.9 102.5 23.6 101.5 23.8 C 100.5 23.9 98.8 22.5 97.5 22.2 C 96.2 22.0 94.8 22.0 93.5 22.2 C 92.2 22.5 90.6 23.2 89.5 24.0 C 88.4 24.8 87.7 26.2 87.0 26.8 C 86.3 27.2 86.1 26.5 85.5 27.0 C 84.9 27.5 83.8 28.7 83.5 29.5 C 83.2 30.3 84.0 31.2 84.0 31.8 C 84.0 32.2 84.4 32.4 83.2 32.5 C 82.1 32.6 79.1 31.8 77.2 32.2 C 75.4 32.7 73.2 34.1 72.0 35.0 C 70.8 35.9 70.3 36.7 70.0 37.5 C 69.7 38.3 69.8 39.1 70.0 39.8 C 70.2 40.4 71.4 41.2 71.0 41.5 C 70.6 41.8 68.6 41.0 67.8 41.2 C 66.9 41.5 66.1 42.5 65.8 43.0 C 65.4 43.5 65.5 43.9 65.8 44.2 C 66.0 44.6 66.9 45.0 67.0 45.2 C 67.1 45.5 67.0 45.9 66.5 46.0 C 66.0 46.1 64.8 45.8 63.8 46.0 C 62.7 46.2 61.4 46.4 60.2 47.0 C 59.1 47.6 57.5 49.1 56.8 49.8 C 56.0 50.4 56.1 50.5 56.0 51.0 C 55.9 51.5 55.6 52.2 56.0 52.8 C 56.4 53.3 58.5 53.7 58.2 54.2 C 58.0 54.8 55.1 55.6 54.3 56.3 C 53.4 56.9 53.3 57.4 53.1 58.1 C 52.9 58.8 53.0 59.9 53.2 60.4 C 53.4 60.9 53.6 61.1 54.2 61.1 C 54.7 61.2 56.0 60.7 56.5 60.8 C 57.1 60.9 58.8 61.0 57.5 61.8 C 56.3 62.5 50.8 64.5 49.0 65.4 C 47.1 66.4 47.5 66.3 46.6 67.3 C 45.6 68.4 43.8 70.8 43.0 71.9 C 42.2 73.0 42.0 73.2 41.9 73.9 C 41.8 74.6 42.1 75.8 42.3 76.2 C 42.6 76.6 42.8 76.4 43.2 76.2 C 43.7 75.9 44.2 75.0 44.8 74.6 C 45.5 74.1 46.8 73.5 47.3 73.5 C 47.8 73.4 48.0 73.8 48.0 74.2 C 47.9 74.5 48.5 74.4 46.8 75.7 C 45.2 77.0 40.0 80.3 37.8 82.0 C 35.7 83.7 35.0 84.5 33.8 85.8 C 32.6 87.2 31.2 89.0 30.4 90.1 C 29.6 91.2 29.3 92.0 29.1 92.6 C 28.9 93.2 28.0 94.2 29.1 93.7 C 30.2 93.3 34.4 90.5 35.6 89.9 C 36.8 89.3 36.1 89.8 36.3 89.9 C 36.4 90.0 36.6 90.3 36.5 90.6 C 36.4 90.9 36.8 90.9 35.6 91.7 C 34.4 92.5 31.1 94.1 29.3 95.5 C 27.5 97.0 25.8 99.0 25.0 100.2 C 24.2 101.5 24.5 102.7 24.6 103.2 C 24.6 103.7 24.4 103.7 25.2 103.2 C 26.1 102.6 28.7 100.3 29.5 99.8 C 30.4 99.3 30.3 99.7 30.2 100.0 C 30.1 100.3 30.1 100.7 29.1 101.6 C 28.1 102.5 25.4 104.3 24.1 105.7 C 22.8 107.0 22.1 108.4 21.2 109.9 C 20.3 111.5 19.3 113.8 19.0 115.1 C 18.6 116.4 18.9 117.0 19.0 117.6 C 19.0 118.1 19.2 118.3 19.4 118.5 C 19.6 118.6 19.5 119.3 20.1 118.5 C 20.7 117.7 21.9 115.1 23.0 113.8 C 24.1 112.4 26.0 110.9 26.8 110.4 C 27.7 109.8 28.6 109.8 28.2 110.6 C 27.7 111.4 25.3 113.3 24.1 115.1 C 23.0 116.9 21.8 119.3 21.2 121.4 C 20.6 123.5 20.6 125.9 20.8 127.7 C 20.9 129.5 21.5 131.4 21.9 132.4 C 22.2 133.4 22.7 133.6 23.0 133.8 C 23.3 134.0 23.5 134.5 23.9 133.6 C 24.3 132.6 24.9 129.1 25.2 128.2 C 25.6 127.2 25.9 127.5 26.2 127.7 C 26.4 127.9 26.9 128.9 26.8 129.5 C 26.8 130.1 26.1 130.6 25.9 131.5 C 25.8 132.5 25.7 133.8 25.9 135.1 C 26.2 136.5 27.0 138.7 27.5 139.6 C 28.0 140.6 28.4 140.8 28.8 141.0 C 29.3 141.2 30.0 141.6 30.2 141.0 C 30.4 140.4 30.1 138.3 30.2 137.4 C 30.3 136.4 30.7 135.8 30.9 135.4 C 31.1 134.9 31.4 134.9 31.5 134.9 C 31.7 134.9 31.9 134.3 32.0 135.4 C 32.1 136.4 31.8 139.9 32.0 141.2 C 32.2 142.5 32.2 142.3 32.9 143.2 C 33.7 144.2 35.5 146.4 36.5 147.1 C 37.5 147.7 38.7 147.4 39.2 147.3 C 39.7 147.2 39.8 147.1 39.7 146.4 C 39.5 145.7 38.7 144.0 38.5 143.0 C 38.4 142.0 38.4 141.3 38.8 140.5 C 39.1 139.7 40.3 137.8 40.5 138.3 C 40.8 138.7 39.9 141.7 40.1 143.2 C 40.3 144.8 40.9 146.3 41.9 147.7 C 42.9 149.1 45.1 150.8 46.0 151.6 C 46.9 152.3 46.6 152.0 47.3 152.0 C 48.0 152.0 49.6 151.7 50.2 151.8 C 50.8 151.8 51.1 152.1 50.9 152.4 C 50.8 152.8 50.0 153.4 49.3 153.6 C 48.7 153.8 47.9 153.8 47.1 153.6 C 46.3 153.4 45.6 153.3 44.6 152.4 C 43.5 151.6 42.0 149.2 40.8 148.6 C 39.5 148.1 38.1 149.3 37.2 149.3 C 36.2 149.3 35.9 149.0 35.2 148.4 C 34.4 147.8 33.2 146.6 32.5 145.7 C 31.7 144.8 31.4 143.3 30.7 142.8 C 29.9 142.3 28.9 143.1 28.2 142.8 C 27.5 142.5 27.1 142.2 26.4 141.0 C 25.7 139.7 24.7 136.4 23.9 135.4 C 23.1 134.3 21.5 134.1 21.4 134.9 C 21.3 135.7 21.8 138.2 23.2 140.3 C 24.7 142.4 27.5 145.3 30.2 147.3 C 32.9 149.2 36.4 150.7 39.7 152.0 C 42.9 153.3 47.0 154.8 49.8 155.4 C 52.5 155.9 55.8 156.0 56.1 155.4 C 56.3 154.7 52.4 152.6 51.3 151.6 C 50.3 150.5 50.2 149.6 50.0 149.1 C 49.8 148.5 50.1 148.3 50.2 148.2 C 50.4 148.0 50.6 147.8 50.9 148.2 C 51.2 148.5 51.2 149.4 52.0 150.2 C 52.8 151.0 54.7 152.5 55.6 153.1 C 56.6 153.7 56.9 153.7 57.9 153.8 C 58.8 153.9 60.3 153.9 61.2 153.8 C 62.2 153.7 62.5 153.7 63.3 153.4 C 64.0 153.0 64.9 152.4 65.7 151.6 C 66.6 150.7 67.7 148.2 68.2 148.3 C 68.8 148.3 69.1 151.1 68.9 151.7 C 68.8 152.3 67.6 151.8 67.3 151.9 C 67.1 152.1 67.0 152.3 67.3 152.5 C 67.7 152.7 69.1 153.3 69.4 153.3 C 69.7 153.2 68.8 152.3 69.2 152.3 C 69.5 152.3 70.1 153.5 71.3 153.4 C 72.5 153.2 75.4 152.0 76.2 151.4 C 77.1 150.8 76.0 150.0 76.2 149.7 C 76.5 149.3 77.2 149.5 77.5 149.2 C 77.8 149.0 78.0 149.8 78.0 148.0 C 78.0 146.2 78.0 140.6 77.8 138.5 C 77.5 136.4 77.2 136.3 76.5 135.2 C 75.8 134.2 74.5 133.8 73.8 132.0 C 73.0 130.2 72.5 126.2 72.2 124.5 C 72.0 122.8 71.9 122.5 72.2 121.8 C 72.6 121.0 74.2 119.4 74.5 120.0 C 74.8 120.6 74.0 124.0 74.2 125.5 C 74.5 127.0 75.7 128.0 76.0 129.0 C 76.3 130.0 75.8 131.2 76.0 131.8 C 76.2 132.3 76.8 132.4 77.0 132.2 C 77.2 132.1 76.8 131.4 77.0 131.0 C 77.2 130.6 77.6 130.0 78.0 130.0 C 78.4 130.0 79.3 129.6 79.5 130.8 C 79.7 131.9 78.9 135.2 79.0 136.8 C 79.1 138.2 79.6 139.2 80.0 139.8 C 80.4 140.2 81.1 139.4 81.5 139.8 C 81.9 140.1 81.6 141.1 82.2 142.0 C 82.9 142.9 84.2 144.5 85.5 145.2 C 86.8 146.0 89.0 146.9 89.8 146.8 C 90.5 146.6 90.0 144.8 90.2 144.2 C 90.5 143.7 91.2 143.1 91.5 143.5 C 91.8 143.9 91.4 145.5 92.2 146.8 C 93.1 148.0 95.5 149.8 96.8 150.8 C 98.0 151.7 98.6 152.1 99.5 152.2 C 100.4 152.4 101.1 151.5 102.0 151.8 C 102.9 152.0 103.9 153.5 105.0 153.8 C 106.1 154.0 107.2 153.9 108.8 153.5 C 110.3 153.1 113.5 151.6 114.5 151.5 C 115.5 151.4 115.3 152.4 115.0 152.8 C 114.7 153.1 113.2 153.2 112.8 153.5 C 112.3 153.8 111.8 154.2 112.2 154.8 C 112.7 155.2 114.1 156.3 115.2 156.5 C 116.4 156.7 118.0 155.8 119.0 156.0 C 120.0 156.2 120.2 157.0 121.2 157.5 C 122.3 158.0 123.5 158.5 125.5 158.8 C 127.5 159.0 131.2 159.0 133.0 159.0 C 134.8 159.0 134.6 158.9 136.0 158.5 C 137.4 158.1 139.5 157.7 141.2 156.8 C 143.0 155.8 145.2 153.5 146.2 153.0 C 147.2 152.5 146.7 153.9 147.2 154.0 C 147.8 154.1 148.8 154.0 149.5 153.5 C 150.2 153.0 151.1 152.1 151.8 151.2 C 152.4 150.4 152.7 148.6 153.2 148.2 C 153.8 147.9 154.7 149.2 155.2 149.2 C 155.8 149.3 156.0 149.2 156.5 148.8 C 157.0 148.3 157.5 146.8 158.0 146.5 C 158.5 146.2 159.0 147.0 159.5 147.0 C 160.0 147.0 160.5 146.8 161.0 146.5 C 161.5 146.2 162.2 145.8 162.8 145.0 C 163.3 144.2 163.8 142.1 164.2 141.8 C 164.8 141.4 165.2 142.6 165.8 142.8 C 166.2 142.9 166.7 143.1 167.2 142.8 C 167.8 142.4 168.6 141.5 169.0 140.8 C 169.4 140.0 169.0 138.4 169.5 138.0 C 170.0 137.6 171.0 138.7 171.8 138.2 C 172.5 137.8 173.4 136.0 173.8 135.2 C 174.1 134.5 173.6 134.2 174.0 133.8 C 174.4 133.3 175.6 133.3 176.2 132.7 C 176.9 132.2 177.4 131.7 177.7 130.2 C 178.0 128.8 178.1 125.7 178.0 124.2 C 177.8 122.7 176.8 122.0 176.7 121.5 C 176.7 120.9 177.0 120.7 177.5 120.8 C 178.0 121.0 179.1 122.5 179.6 122.3 C 180.2 122.1 180.4 120.7 180.6 119.6 C 180.7 118.6 181.0 117.4 180.6 116.0 C 180.1 114.6 178.2 112.2 178.0 111.3 C 177.7 110.3 178.7 110.2 179.2 110.2 C 179.6 110.1 180.5 110.6 180.8 111.0 C 181.1 111.4 180.6 111.9 180.8 112.4 C 181.0 113.0 181.6 113.0 181.9 114.3 C 182.2 115.5 182.7 118.2 182.3 120.0 C 182.0 121.7 180.3 123.6 179.9 124.9 C 179.5 126.1 180.1 126.1 179.9 127.3 C 179.7 128.5 179.2 130.9 178.7 132.1 C 178.2 133.3 177.5 134.1 177.0 134.7 C 176.5 135.2 176.0 134.9 175.5 135.2 C 175.0 135.6 174.5 136.3 174.2 137.0 C 174.0 137.7 173.8 137.9 173.8 139.2 C 173.7 140.6 173.8 143.9 174.0 145.0 C 174.2 146.1 174.9 145.8 175.2 145.8 C 175.6 145.7 175.9 144.7 176.2 144.5 C 176.6 144.3 177.2 144.2 177.2 144.6 C 177.3 145.0 176.5 146.1 176.5 147.0 C 176.5 147.9 176.5 149.2 177.0 149.9 C 177.5 150.6 178.9 151.1 179.6 151.0 C 180.4 151.0 180.9 150.1 181.2 149.6 C 181.6 149.1 181.5 148.4 181.7 148.0 C 181.9 147.6 181.7 147.2 182.3 147.1 C 182.9 147.0 184.4 147.5 185.2 147.5 C 186.1 147.4 186.3 147.0 187.3 146.8 C 188.3 146.6 190.5 146.4 191.3 146.2 C 192.1 145.9 191.7 145.3 192.2 145.3 C 192.7 145.2 193.4 145.9 194.2 145.9 C 195.1 146.0 196.2 146.0 197.2 145.7 C 198.2 145.4 199.3 145.0 200.3 144.1 C 201.3 143.3 202.4 141.2 203.2 140.8 C 204.1 140.4 204.7 141.8 205.7 141.7 C 206.8 141.5 208.4 140.8 209.5 139.9 C 210.7 139.0 211.5 138.1 212.5 136.3 C 213.4 134.4 214.8 129.9 215.4 128.6 C 216.0 127.4 215.8 128.5 215.8 128.8 C 215.8 129.2 215.4 129.9 215.4 130.4 C 215.4 131.0 215.4 131.8 215.8 132.0 C 216.3 132.2 217.5 132.0 218.3 131.6 C 219.1 131.1 220.2 132.1 220.6 129.1 C 221.0 126.1 220.9 116.5 220.8 113.6 C 220.6 110.6 219.7 111.8 219.7 111.3 C 219.7 110.9 220.6 113.5 220.8 110.8 C 221.0 108.2 221.3 98.6 220.8 95.6 C 220.3 92.5 218.0 93.2 217.7 92.6 C 217.3 92.1 218.3 92.1 218.8 92.2 C 219.3 92.3 220.5 94.0 220.8 93.3 C 221.1 92.6 221.5 89.4 220.8 87.9 Z" fill="none" stroke="#6f6e69" stroke-width="0.9" stroke-linejoin="round"/><path d="M 220.8 87.9 C 220.1 86.4 216.9 85.2 216.5 84.5 C 216.2 83.9 218.6 84.4 218.8 83.8 C 219.0 83.2 219.9 82.6 217.7 80.9 C 215.4 79.2 207.4 75.0 205.5 73.7 C 203.6 72.4 205.4 72.9 206.2 73.1 C 207.0 73.2 209.4 74.6 210.2 74.8 C 211.0 75.1 210.9 75.0 211.1 74.6 C 211.4 74.2 211.9 73.3 211.8 72.6 C 211.7 71.9 211.3 71.3 210.7 70.6 C 210.0 69.9 209.2 69.0 208.0 68.3 C 206.7 67.6 205.0 67.3 203.2 66.2 C 201.3 65.2 197.8 63.0 196.8 62.1 C 195.9 61.2 196.7 61.1 197.3 61.1 C 197.9 61.1 199.9 62.0 200.7 62.1 C 201.4 62.2 201.6 62.2 201.9 61.8 C 202.3 61.5 202.9 61.0 202.8 60.0 C 202.7 59.1 202.1 57.3 201.5 56.4 C 200.9 55.4 200.4 55.0 199.2 54.3 C 198.0 53.5 196.5 52.5 194.2 52.0 C 192.0 51.5 187.5 51.6 186.0 51.2 C 184.5 50.9 185.2 50.4 185.5 50.0 C 185.8 49.6 187.3 49.6 187.8 49.0 C 188.2 48.4 188.5 47.5 188.2 46.5 C 188.0 45.5 187.3 44.1 186.2 43.2 C 185.2 42.4 182.5 42.0 182.0 41.5 C 181.5 41.0 182.9 40.5 183.0 40.0 C 183.1 39.5 183.2 39.1 182.8 38.5 C 182.3 37.9 181.1 36.8 180.2 36.2 C 179.4 35.7 178.9 35.5 177.5 35.2 C 176.1 35.0 173.0 35.2 172.0 35.0 C 171.0 34.8 171.4 34.8 171.5 34.2 C 171.6 33.7 172.5 32.4 172.5 31.8 C 172.5 31.1 172.2 31.0 171.8 30.5 C 171.3 30.0 170.8 29.2 169.8 29.0 C 168.7 28.8 165.9 29.5 165.2 29.0 C 164.6 28.5 166.0 27.2 165.8 26.2 C 165.5 25.2 164.8 23.9 163.5 23.0 C 162.2 22.1 160.1 21.3 158.0 21.0 C 155.9 20.7 152.8 21.0 151.0 21.2 C 149.2 21.5 147.8 23.2 147.0 22.8 C 146.2 22.3 146.9 19.7 146.5 18.8 C 146.1 17.8 145.5 17.5 144.8 17.0 C 144.0 16.5 143.3 16.1 142.0 16.0 C 140.7 15.9 138.4 15.8 136.8 16.2 C 135.1 16.7 133.0 18.6 132.2 18.8 C 131.5 18.9 132.5 17.7 132.2 17.2 C 132.0 16.8 131.8 16.4 131.0 16.2 C 130.2 16.1 128.8 16.0 127.8 16.2 C 126.7 16.5 125.4 17.7 124.8 18.0 C 124.1 18.3 124.3 18.3 123.8 18.0 C 123.2 17.7 122.2 16.5 121.2 16.2 C 120.3 16.0 119.2 16.1 118.2 16.2 C 117.3 16.4 116.5 16.6 115.5 17.0 C 114.5 17.4 113.6 17.7 112.5 18.8 C 111.4 19.8 109.8 22.8 108.8 23.2 C 107.7 23.7 107.1 21.5 106.2 21.2 C 105.4 21.0 104.3 21.1 103.5 21.5 C 102.7 21.9 102.5 23.6 101.5 23.8 C 100.5 23.9 98.8 22.5 97.5 22.2 C 96.2 22.0 94.8 22.0 93.5 22.2 C 92.2 22.5 90.6 23.2 89.5 24.0 C 88.4 24.8 87.7 26.2 87.0 26.8 C 86.3 27.2 86.1 26.5 85.5 27.0 C 84.9 27.5 83.8 28.7 83.5 29.5 C 83.2 30.3 84.0 31.2 84.0 31.8 C 84.0 32.2 84.4 32.4 83.2 32.5 C 82.1 32.6 79.1 31.8 77.2 32.2 C 75.4 32.7 73.2 34.1 72.0 35.0 C 70.8 35.9 70.3 36.7 70.0 37.5 C 69.7 38.3 69.8 39.1 70.0 39.8 C 70.2 40.4 71.4 41.2 71.0 41.5 C 70.6 41.8 68.6 41.0 67.8 41.2 C 66.9 41.5 66.1 42.5 65.8 43.0 C 65.4 43.5 65.5 43.9 65.8 44.2 C 66.0 44.6 66.9 45.0 67.0 45.2 C 67.1 45.5 67.0 45.9 66.5 46.0 C 66.0 46.1 64.8 45.8 63.8 46.0 C 62.7 46.2 61.4 46.4 60.2 47.0 C 59.1 47.6 57.5 49.1 56.8 49.8 C 56.0 50.4 56.1 50.5 56.0 51.0 C 55.9 51.5 55.6 52.2 56.0 52.8 C 56.4 53.3 58.5 53.7 58.2 54.2 C 58.0 54.8 55.1 55.6 54.3 56.3 C 53.4 56.9 53.3 57.4 53.1 58.1 C 52.9 58.8 53.0 59.9 53.2 60.4 C 53.4 60.9 53.6 61.1 54.2 61.1 C 54.7 61.2 56.0 60.7 56.5 60.8 C 57.1 60.9 58.8 61.0 57.5 61.8 C 56.3 62.5 50.8 64.5 49.0 65.4 C 47.1 66.4 47.5 66.3 46.6 67.3 C 45.6 68.4 43.8 70.8 43.0 71.9 C 42.2 73.0 42.0 73.2 41.9 73.9 C 41.8 74.6 42.1 75.8 42.3 76.2 C 42.6 76.6 42.8 76.4 43.2 76.2 C 43.7 75.9 44.2 75.0 44.8 74.6 C 45.5 74.1 46.8 73.5 47.3 73.5 C 47.8 73.4 48.0 73.8 48.0 74.2 C 47.9 74.5 48.5 74.4 46.8 75.7 C 45.2 77.0 40.0 80.3 37.8 82.0 C 35.7 83.7 35.0 84.5 33.8 85.8 C 32.6 87.2 31.2 89.0 30.4 90.1 C 29.6 91.2 29.3 92.0 29.1 92.6 C 28.9 93.2 28.0 94.2 29.1 93.7 C 30.2 93.3 34.4 90.5 35.6 89.9 C 36.8 89.3 36.1 89.8 36.3 89.9 C 36.4 90.0 36.6 90.3 36.5 90.6 C 36.4 90.9 36.8 90.9 35.6 91.7 C 34.4 92.5 31.1 94.1 29.3 95.5 C 27.5 97.0 25.8 99.0 25.0 100.2 C 24.2 101.5 24.5 102.7 24.6 103.2 C 24.6 103.7 24.4 103.7 25.2 103.2 C 26.1 102.6 28.7 100.3 29.5 99.8 C 30.4 99.3 30.3 99.7 30.2 100.0 C 30.1 100.3 30.1 100.7 29.1 101.6 C 28.1 102.5 25.4 104.3 24.1 105.7 C 22.8 107.0 22.1 108.4 21.2 109.9 C 20.3 111.5 19.3 113.8 19.0 115.1 C 18.6 116.4 18.9 117.0 19.0 117.6 C 19.0 118.1 19.2 118.3 19.4 118.5 C 19.6 118.6 19.5 119.3 20.1 118.5 C 20.7 117.7 21.9 115.1 23.0 113.8 C 24.1 112.4 26.0 110.9 26.8 110.4 C 27.7 109.8 28.6 109.8 28.2 110.6 C 27.7 111.4 25.3 113.3 24.1 115.1 C 23.0 116.9 21.8 119.3 21.2 121.4 C 20.6 123.5 20.6 125.9 20.8 127.7 C 20.9 129.5 21.5 131.4 21.9 132.4 C 22.2 133.4 22.7 133.6 23.0 133.8 C 23.3 134.0 23.5 134.5 23.9 133.6 C 24.3 132.6 24.9 129.1 25.2 128.2 C 25.6 127.2 25.9 127.5 26.2 127.7 C 26.4 127.9 26.9 128.9 26.8 129.5 C 26.8 130.1 26.1 130.6 25.9 131.5 C 25.8 132.5 25.7 133.8 25.9 135.1 C 26.2 136.5 27.0 138.7 27.5 139.6 C 28.0 140.6 28.4 140.8 28.8 141.0 C 29.3 141.2 30.0 141.6 30.2 141.0 C 30.4 140.4 30.1 138.3 30.2 137.4 C 30.3 136.4 30.7 135.8 30.9 135.4 C 31.1 134.9 31.4 134.9 31.5 134.9 C 31.7 134.9 31.9 134.3 32.0 135.4 C 32.1 136.4 31.8 139.9 32.0 141.2 C 32.2 142.5 32.2 142.3 32.9 143.2 C 33.7 144.2 35.5 146.4 36.5 147.1 C 37.5 147.7 38.7 147.4 39.2 147.3 C 39.7 147.2 39.8 147.1 39.7 146.4 C 39.5 145.7 38.7 144.0 38.5 143.0 C 38.4 142.0 38.4 141.3 38.8 140.5 C 39.1 139.7 40.3 137.8 40.5 138.3 C 40.8 138.7 39.9 141.7 40.1 143.2 C 40.3 144.8 40.9 146.3 41.9 147.7 C 42.9 149.1 45.1 150.8 46.0 151.6 C 46.9 152.3 46.6 152.0 47.3 152.0 C 48.0 152.0 49.6 151.7 50.2 151.8 C 50.8 151.8 51.1 152.1 50.9 152.4 C 50.8 152.8 50.0 153.4 49.3 153.6 C 48.7 153.8 47.9 153.8 47.1 153.6 C 46.3 153.4 45.6 153.3 44.6 152.4 C 43.5 151.6 42.0 149.2 40.8 148.6 C 39.5 148.1 38.1 149.3 37.2 149.3 C 36.2 149.3 35.9 149.0 35.2 148.4 C 34.4 147.8 33.2 146.6 32.5 145.7 C 31.7 144.8 31.4 143.3 30.7 142.8 C 29.9 142.3 28.9 143.1 28.2 142.8 C 27.5 142.5 27.1 142.2 26.4 141.0 C 25.7 139.7 24.7 136.4 23.9 135.4 C 23.1 134.3 21.5 134.1 21.4 134.9 C 21.3 135.7 21.8 138.2 23.2 140.3 C 24.7 142.4 27.5 145.3 30.2 147.3 C 32.9 149.2 36.4 150.7 39.7 152.0 C 42.9 153.3 47.0 154.8 49.8 155.4 C 52.5 155.9 55.8 156.0 56.1 155.4 C 56.3 154.7 52.4 152.6 51.3 151.6 C 50.3 150.5 50.2 149.6 50.0 149.1 C 49.8 148.5 50.1 148.3 50.2 148.2 C 50.4 148.0 50.6 147.8 50.9 148.2 C 51.2 148.5 51.2 149.4 52.0 150.2 C 52.8 151.0 54.7 152.5 55.6 153.1 C 56.6 153.7 56.9 153.7 57.9 153.8 C 58.8 153.9 60.3 153.9 61.2 153.8 C 62.2 153.7 62.5 153.7 63.3 153.4 C 64.0 153.0 64.9 152.4 65.7 151.6 C 66.6 150.7 67.7 148.2 68.2 148.3 C 68.8 148.3 69.1 151.1 68.9 151.7 C 68.8 152.3 67.6 151.8 67.3 151.9 C 67.1 152.1 67.0 152.3 67.3 152.5 C 67.7 152.7 69.1 153.3 69.4 153.3 C 69.7 153.2 68.8 152.3 69.2 152.3 C 69.5 152.3 70.1 153.5 71.3 153.4 C 72.5 153.2 75.4 152.0 76.2 151.4 C 77.1 150.8 76.0 150.0 76.2 149.7 C 76.5 149.3 77.2 149.5 77.5 149.2 C 77.8 149.0 78.0 149.8 78.0 148.0 C 78.0 146.2 78.0 140.6 77.8 138.5 C 77.5 136.4 77.2 136.3 76.5 135.2 C 75.8 134.2 74.5 133.8 73.8 132.0 C 73.0 130.2 72.5 126.2 72.2 124.5 C 72.0 122.8 71.9 122.5 72.2 121.8 C 72.6 121.0 74.2 119.4 74.5 120.0 C 74.8 120.6 74.0 124.0 74.2 125.5 C 74.5 127.0 75.7 128.0 76.0 129.0 C 76.3 130.0 75.8 131.2 76.0 131.8 C 76.2 132.3 76.8 132.4 77.0 132.2 C 77.2 132.1 76.8 131.4 77.0 131.0 C 77.2 130.6 77.6 130.0 78.0 130.0 C 78.4 130.0 79.3 129.6 79.5 130.8 C 79.7 131.9 78.9 135.2 79.0 136.8 C 79.1 138.2 79.6 139.2 80.0 139.8 C 80.4 140.2 81.1 139.4 81.5 139.8 C 81.9 140.1 81.6 141.1 82.2 142.0 C 82.9 142.9 84.2 144.5 85.5 145.2 C 86.8 146.0 89.0 146.9 89.8 146.8 C 90.5 146.6 90.0 144.8 90.2 144.2 C 90.5 143.7 91.2 143.1 91.5 143.5 C 91.8 143.9 91.4 145.5 92.2 146.8 C 93.1 148.0 95.5 149.8 96.8 150.8 C 98.0 151.7 98.6 152.1 99.5 152.2 C 100.4 152.4 101.1 151.5 102.0 151.8 C 102.9 152.0 103.9 153.5 105.0 153.8 C 106.1 154.0 107.2 153.9 108.8 153.5 C 110.3 153.1 113.5 151.6 114.5 151.5 C 115.5 151.4 115.3 152.4 115.0 152.8 C 114.7 153.1 113.2 153.2 112.8 153.5 C 112.3 153.8 111.8 154.2 112.2 154.8 C 112.7 155.2 114.1 156.3 115.2 156.5 C 116.4 156.7 118.0 155.8 119.0 156.0 C 120.0 156.2 120.2 157.0 121.2 157.5 C 122.3 158.0 123.5 158.5 125.5 158.8 C 127.5 159.0 131.2 159.0 133.0 159.0 C 134.8 159.0 134.6 158.9 136.0 158.5 C 137.4 158.1 139.5 157.7 141.2 156.8 C 143.0 155.8 145.2 153.5 146.2 153.0 C 147.2 152.5 146.7 153.9 147.2 154.0 C 147.8 154.1 148.8 154.0 149.5 153.5 C 150.2 153.0 151.1 152.1 151.8 151.2 C 152.4 150.4 152.7 148.6 153.2 148.2 C 153.8 147.9 154.7 149.2 155.2 149.2 C 155.8 149.3 156.0 149.2 156.5 148.8 C 157.0 148.3 157.5 146.8 158.0 146.5 C 158.5 146.2 159.0 147.0 159.5 147.0 C 160.0 147.0 160.5 146.8 161.0 146.5 C 161.5 146.2 162.2 145.8 162.8 145.0 C 163.3 144.2 163.8 142.1 164.2 141.8 C 164.8 141.4 165.2 142.6 165.8 142.8 C 166.2 142.9 166.7 143.1 167.2 142.8 C 167.8 142.4 168.6 141.5 169.0 140.8 C 169.4 140.0 169.0 138.4 169.5 138.0 C 170.0 137.6 171.0 138.7 171.8 138.2 C 172.5 137.8 173.4 136.0 173.8 135.2 C 174.1 134.5 173.6 134.2 174.0 133.8 C 174.4 133.3 175.6 133.3 176.2 132.7 C 176.9 132.2 177.4 131.7 177.7 130.2 C 178.0 128.8 178.1 125.7 178.0 124.2 C 177.8 122.7 176.8 122.0 176.7 121.5 C 176.7 120.9 177.0 120.7 177.5 120.8 C 178.0 121.0 179.1 122.5 179.6 122.3 C 180.2 122.1 180.4 120.7 180.6 119.6 C 180.7 118.6 181.0 117.4 180.6 116.0 C 180.1 114.6 178.2 112.2 178.0 111.3 C 177.7 110.3 178.7 110.2 179.2 110.2 C 179.6 110.1 180.5 110.6 180.8 111.0 C 181.1 111.4 180.6 111.9 180.8 112.4 C 181.0 113.0 181.6 113.0 181.9 114.3 C 182.2 115.5 182.7 118.2 182.3 120.0 C 182.0 121.7 180.3 123.6 179.9 124.9 C 179.5 126.1 180.1 126.1 179.9 127.3 C 179.7 128.5 179.2 130.9 178.7 132.1 C 178.2 133.3 177.5 134.1 177.0 134.7 C 176.5 135.2 176.0 134.9 175.5 135.2 C 175.0 135.6 174.5 136.3 174.2 137.0 C 174.0 137.7 173.8 137.9 173.8 139.2 C 173.7 140.6 173.8 143.9 174.0 145.0 C 174.2 146.1 174.9 145.8 175.2 145.8 C 175.6 145.7 175.9 144.7 176.2 144.5 C 176.6 144.3 177.2 144.2 177.2 144.6 C 177.3 145.0 176.5 146.1 176.5 147.0 C 176.5 147.9 176.5 149.2 177.0 149.9 C 177.5 150.6 178.9 151.1 179.6 151.0 C 180.4 151.0 180.9 150.1 181.2 149.6 C 181.6 149.1 181.5 148.4 181.7 148.0 C 181.9 147.6 181.7 147.2 182.3 147.1 C 182.9 147.0 184.4 147.5 185.2 147.5 C 186.1 147.4 186.3 147.0 187.3 146.8 C 188.3 146.6 190.5 146.4 191.3 146.2 C 192.1 145.9 191.7 145.3 192.2 145.3 C 192.7 145.2 193.4 145.9 194.2 145.9 C 195.1 146.0 196.2 146.0 197.2 145.7 C 198.2 145.4 199.3 145.0 200.3 144.1 C 201.3 143.3 202.4 141.2 203.2 140.8 C 204.1 140.4 204.7 141.8 205.7 141.7 C 206.8 141.5 208.4 140.8 209.5 139.9 C 210.7 139.0 211.5 138.1 212.5 136.3 C 213.4 134.4 214.8 129.9 215.4 128.6 C 216.0 127.4 215.8 128.5 215.8 128.8 C 215.8 129.2 215.4 129.9 215.4 130.4 C 215.4 131.0 215.4 131.8 215.8 132.0 C 216.3 132.2 217.5 132.0 218.3 131.6 C 219.1 131.1 220.2 132.1 220.6 129.1 C 221.0 126.1 220.9 116.5 220.8 113.6 C 220.6 110.6 219.7 111.8 219.7 111.3 C 219.7 110.9 220.6 113.5 220.8 110.8 C 221.0 108.2 221.3 98.6 220.8 95.6 C 220.3 92.5 218.0 93.2 217.7 92.6 C 217.3 92.1 218.3 92.1 218.8 92.2 C 219.3 92.3 220.5 94.0 220.8 93.3 C 221.1 92.6 221.5 89.4 220.8 87.9 Z" fill="#1c1c1a"/><path d="M 41.9 109.2 C 42.0 108.9 41.4 109.3 41.2 109.5 C 41.1 109.7 41.2 110.1 41.0 110.4 C 40.8 110.6 41.1 109.4 40.1 111.1 C 39.0 112.7 35.6 118.0 34.7 120.3 C 33.8 122.6 34.6 124.2 34.7 125.0 C 34.8 125.8 35.3 125.3 35.4 125.0 C 35.5 124.7 35.2 124.0 35.4 123.0 C 35.6 122.0 36.0 120.0 36.5 118.9 C 37.0 117.9 37.6 117.5 38.1 116.7 C 38.5 115.8 38.8 114.6 39.2 113.8 C 39.7 112.9 40.3 112.5 40.8 111.7 C 41.2 111.0 41.8 109.6 41.9 109.2 Z" fill="#8d8c86"/><path d="M 203.9 94.7 C 204.0 95.0 204.4 96.3 204.6 96.7 C 204.8 97.1 204.5 96.0 205.3 97.1 C 206.1 98.2 208.8 102.0 209.5 103.4 C 210.3 104.8 209.7 104.5 210.0 105.4 C 210.3 106.3 211.3 107.8 211.6 108.8 C 211.9 109.8 211.6 110.9 211.8 111.3 C 211.9 111.7 212.4 111.8 212.5 111.3 C 212.6 110.8 212.6 109.1 212.5 108.4 C 212.3 107.7 211.9 107.9 211.6 107.0 C 211.2 106.1 211.5 104.8 210.5 103.0 C 209.4 101.1 206.3 97.1 205.3 95.8 C 204.3 94.5 204.5 95.3 204.4 95.1 C 204.2 94.9 204.5 94.7 204.4 94.7 C 204.3 94.6 203.9 94.3 203.9 94.7 Z" fill="#8d8c86"/><path d="M 64.3 97.8 C 63.8 98.4 63.1 99.3 62.9 101.0 C 62.6 102.7 62.6 106.5 62.7 108.0 C 62.8 109.6 63.1 109.6 63.4 110.3 C 63.8 111.0 64.3 111.7 64.8 112.3 C 65.4 112.8 66.4 112.3 66.8 113.7 C 67.2 115.1 67.1 119.1 67.3 120.5 C 67.4 121.9 67.5 121.7 67.8 122.0 C 68.0 122.4 68.3 124.5 68.5 122.6 C 68.7 120.7 68.8 112.5 68.7 110.5 C 68.7 108.5 68.2 110.4 68.0 110.7 C 67.8 110.9 68.0 111.7 67.8 112.1 C 67.5 112.4 67.0 113.0 66.5 112.7 C 66.0 112.4 65.0 110.8 64.6 110.2 C 64.2 109.5 64.2 110.0 64.1 108.9 C 64.0 107.7 63.8 104.6 63.8 103.3 C 63.8 102.1 63.8 102.4 64.1 101.5 C 64.3 100.7 65.3 99.1 65.5 98.4 C 65.7 97.8 65.7 97.6 65.5 97.5 C 65.3 97.4 64.7 97.2 64.3 97.8 Z" fill="#8d8c86"/><path d="M 62.8 80.7 C 62.5 80.8 61.6 81.2 61.1 81.9 C 60.5 82.6 59.6 84.3 59.3 85.1 C 59.0 85.8 59.1 86.0 59.3 86.5 C 59.5 86.9 60.4 87.5 60.7 87.9 C 60.9 88.3 60.9 88.2 60.7 89.1 C 60.5 89.9 59.6 92.2 59.4 93.1 C 59.2 94.1 59.2 94.1 59.5 94.7 C 59.7 95.3 60.7 96.6 61.0 97.0 C 61.4 97.4 61.5 97.4 61.5 97.1 C 61.4 96.8 60.9 95.9 60.8 95.1 C 60.7 94.3 60.7 93.3 60.9 92.2 C 61.2 91.0 61.7 89.2 62.1 88.3 C 62.4 87.4 63.0 87.0 63.0 86.7 C 63.1 86.4 62.6 86.5 62.3 86.7 C 62.0 86.8 61.7 87.6 61.3 87.5 C 61.0 87.5 60.6 86.8 60.4 86.4 C 60.3 86.0 60.2 85.9 60.4 85.2 C 60.6 84.5 61.4 82.8 61.8 82.2 C 62.2 81.6 62.6 81.7 62.8 81.5 C 62.9 81.3 63.0 80.7 62.8 80.7 Z" fill="#8d8c86"/><path d="M 181.7 74.8 C 182.0 75.7 183.6 78.4 184.0 80.4 C 184.4 82.4 184.4 85.6 184.2 86.9 C 184.1 88.2 183.7 88.5 183.2 88.3 C 182.7 88.1 181.7 86.3 181.2 85.9 C 180.8 85.5 180.7 85.8 180.6 86.0 C 180.5 86.2 180.3 86.4 180.6 87.0 C 180.9 87.6 181.8 88.4 182.3 89.7 C 182.9 91.1 183.6 93.5 183.8 95.2 C 184.0 96.8 183.5 98.8 183.6 99.4 C 183.7 100.1 184.4 100.0 184.6 99.0 C 184.8 98.1 185.0 95.2 184.8 93.7 C 184.7 92.1 183.8 90.6 183.8 89.6 C 183.8 88.5 184.8 88.2 185.0 87.6 C 185.3 87.1 185.4 87.0 185.4 86.2 C 185.5 85.3 185.7 84.0 185.4 82.5 C 185.2 81.0 184.5 78.7 184.0 77.4 C 183.5 76.1 182.7 75.2 182.3 74.7 C 181.9 74.3 181.4 73.8 181.7 74.8 Z" fill="#8d8c86"/><circle cx="91" cy="106" r="10.5" fill="#f5f4ed"/><circle cx="94" cy="106" r="8.6" fill="#080807"/><circle cx="91" cy="103" r="3" fill="#f5f4ed"/><circle cx="97.4" cy="109" r="1.4" fill="#f5f4ed"/><circle cx="143" cy="106" r="10.5" fill="#f5f4ed"/><circle cx="146" cy="106" r="8.6" fill="#080807"/><circle cx="143" cy="103" r="3" fill="#f5f4ed"/><circle cx="149.4" cy="109" r="1.4" fill="#f5f4ed"/><path d="M 106 130 C 106 123 128 123 128 130 C 128 138 122 143 117 143 C 112 143 106 138 106 130 Z" fill="#080807" stroke="#8d8c86" stroke-width="1.2" stroke-linejoin="round"/><ellipse cx="113" cy="129" rx="3.6" ry="2" fill="#f5f4ed"/><path d="M 117 143 L 117 148 M 109 149 Q 117 151 125 149" fill="none" stroke="#8d8c86" stroke-width="1.6" stroke-linecap="round"/></g></svg>